<svg xmlns="http://www.w3.org/2000/svg" viewBox="0 0 498 512" width="498" height="512"
     role="img" aria-labelledby="fig-balanced-vs-path-title fig-balanced-vs-path-desc">
  <title id="fig-balanced-vs-path-title">两种形状：填满的树与退化成链的树</title>
  <desc id="fig-balanced-vs-path-desc">左边 7 个节点填满三层，高度是 2；右边 5 个节点一路往下接成一条链，高度是 4。层数就是 h，而所有操作都是 O(h)。</desc>

  <defs>
    <style>
      text { font-family: 'PingFang SC', 'Microsoft YaHei', 'Noto Sans CJK SC', system-ui, sans-serif; }
    </style>
    <marker id="arrow" markerWidth="8" markerHeight="8" refX="2" refY="4" orient="auto" markerUnits="userSpaceOnUse">
      <path d="M0,0 L8,4 L0,8 L2,4 z" fill="#64748b"/>
    </marker>
  </defs>

  <rect x="0" y="0" width="498" height="512" fill="#ffffff"/>
  <text x="249.0" y="34" font-size="16" font-weight="600" fill="#1f2937" text-anchor="middle">两种形状：填满的树与退化成链的树</text>
  <g transform="translate(-20.0,-58.0)">
  <path d="M182.4,149.2 C 162.9,152.7 141.4,176.1 139.6,195.8" fill="none" stroke="#64748b" stroke-width="1.5"/>
  <path d="M217.6,149.2 C 237.1,152.7 258.6,176.1 260.4,195.8" fill="none" stroke="#64748b" stroke-width="1.5"/>
  <path d="M108.1,236.9 C 91.4,240.8 78.3,261.3 81.9,278.1" fill="none" stroke="#64748b" stroke-width="1.5"/>
  <path d="M129.1,240.0 C 143.1,245.5 148.0,263.0 138.9,275.0" fill="none" stroke="#64748b" stroke-width="1.5"/>
  <path d="M264.1,236.9 C 247.4,240.8 234.3,261.3 237.9,278.1" fill="none" stroke="#64748b" stroke-width="1.5"/>
  <path d="M285.1,240.0 C 299.1,245.5 304.0,263.0 294.9,275.0" fill="none" stroke="#64748b" stroke-width="1.5"/>
  <circle cx="200" cy="130" r="26" fill="#dbeafe" stroke="#3b82f6" stroke-width="1.5"/>
  <text x="200" y="134.2" font-size="12" fill="#1e40af" text-anchor="middle">4</text>
  <circle cx="122" cy="215" r="26" fill="#dbeafe" stroke="#3b82f6" stroke-width="1.5"/>
  <text x="122" y="219.2" font-size="12" fill="#1e40af" text-anchor="middle">2</text>
  <circle cx="278" cy="215" r="26" fill="#dbeafe" stroke="#3b82f6" stroke-width="1.5"/>
  <text x="278" y="219.2" font-size="12" fill="#1e40af" text-anchor="middle">6</text>
  <circle cx="68" cy="300" r="26" fill="#dbeafe" stroke="#3b82f6" stroke-width="1.5"/>
  <text x="68" y="304.2" font-size="12" fill="#1e40af" text-anchor="middle">1</text>
  <circle cx="146" cy="300" r="26" fill="#dbeafe" stroke="#3b82f6" stroke-width="1.5"/>
  <text x="146" y="304.2" font-size="12" fill="#1e40af" text-anchor="middle">3</text>
  <circle cx="224" cy="300" r="26" fill="#dbeafe" stroke="#3b82f6" stroke-width="1.5"/>
  <text x="224" y="304.2" font-size="12" fill="#1e40af" text-anchor="middle">5</text>
  <circle cx="302" cy="300" r="26" fill="#dbeafe" stroke="#3b82f6" stroke-width="1.5"/>
  <text x="302" y="304.2" font-size="12" fill="#1e40af" text-anchor="middle">7</text>
  <path d="M470,156 L470,189" fill="none" stroke="#64748b" stroke-width="1.5"/>
  <path d="M470,241 L470,274" fill="none" stroke="#64748b" stroke-width="1.5"/>
  <path d="M470,326 L470,359" fill="none" stroke="#64748b" stroke-width="1.5"/>
  <path d="M470,411 L470,444" fill="none" stroke="#64748b" stroke-width="1.5"/>
  <circle cx="470" cy="130" r="26" fill="#dbeafe" stroke="#3b82f6" stroke-width="1.5"/>
  <text x="470" y="134.2" font-size="12" fill="#1e40af" text-anchor="middle">1</text>
  <circle cx="470" cy="215" r="26" fill="#dbeafe" stroke="#3b82f6" stroke-width="1.5"/>
  <text x="470" y="219.2" font-size="12" fill="#1e40af" text-anchor="middle">2</text>
  <circle cx="470" cy="300" r="26" fill="#dbeafe" stroke="#3b82f6" stroke-width="1.5"/>
  <text x="470" y="304.2" font-size="12" fill="#1e40af" text-anchor="middle">3</text>
  <circle cx="470" cy="385" r="26" fill="#dbeafe" stroke="#3b82f6" stroke-width="1.5"/>
  <text x="470" y="389.2" font-size="12" fill="#1e40af" text-anchor="middle">4</text>
  <circle cx="470" cy="470" r="26" fill="#dbeafe" stroke="#3b82f6" stroke-width="1.5"/>
  <text x="470" y="474.2" font-size="12" fill="#1e40af" text-anchor="middle">5</text>
  <text x="386" y="250" font-size="12" fill="#1f2937" text-anchor="middle">对比</text>
  <text x="269" y="545" font-size="10" fill="#64748b" text-anchor="middle">同样是二叉搜索树：左边 7 个节点只站 3 层，右边 5 个节点却站了 5 层</text>
  </g>
</svg>
